<?xml version="1.0" encoding="UTF-8"?>
<svg width="66.8mm" height="1.46mm" version="1.1" viewBox="0 0 66.793198 1.4599777" xmlns="http://www.w3.org/2000/svg">
 <path d="m34.4 0.00201c-6.1 0.169-12.2 0.423-18.3 0.55-4.49 0.0847-8.95 0.0423-13.4 0.0423h-2.07c-0.19-0.106-0.529-0.0635-0.572 0.19 0 0.254 0.318 0.296 0.508 0.296 3.22 0.0847 6.46 0.0212 9.67 0 6.16-0.0423 12.3-0.127 18.5-0.318 6.73-0.169 13.4-0.254 20.2 0.0847 4.06 0.169 8.13 0.423 12.2 0.445 1.74 0.0423 3.47 0.0635 5.21 0.0847 0.19 0.212 0.698-0.0212 0.529-0.296-0.233-0.254-0.593-0.169-0.889-0.191-5.14-0.0635-10.3-0.233-15.4-0.508-5.33-0.254-10.7-0.402-16-0.381z" fill="#94ac78" fill-rule="evenodd"/>
</svg>
