<?xml version="1.0" encoding="UTF-8"?>
<svg width="3.8733mm" height="3.8733mm" version="1.1" viewBox="0 0 3.8733413 3.8733416" xmlns="http://www.w3.org/2000/svg" xmlns:osb="http://www.openswatchbook.org/uri/2009/osb"><defs><linearGradient id="a" gradientTransform="matrix(.67836 0 0 2.4083 203.88 -1775.1)" osb:paint="solid"><stop stop-color="#9f9a8e" offset="0"/></linearGradient></defs><g transform="translate(-62.319 99.544)"><g transform="matrix(.084857 0 0 .084857 61.482 -53.648)" enable-background="new" fill-rule="evenodd" stroke-width="3.3258"><rect x="9.8692" y="-540.85" width="45.645" height="45.645" rx="9.0246" ry="7.9495" color="#000000" color-rendering="auto" enable-background="accumulate" fill="url(#a)" image-rendering="auto" shape-rendering="auto" solid-color="#000000" style="isolation:auto;mix-blend-mode:normal"/><path d="m47.69-520.84h-5.8256v-3.8738c0.42656-3.6619 6.4753-2.9662 6.4753-2.9662l0.0019-0.25031-0.0028-0.0281v-6.0159h-0.0056c-0.20625-0.0506-12.031-2.8566-14.379 6.1425 0 2e-3 0 5e-3 -0.0028 7e-3l-0.01594 0.0591c-0.36937 1.125-0.34406 6.2775-0.33937 6.9253h-5.0475v6.8906h5.3625v18.741h7.8066v-18.742h5.9719l0.67219-6.8906h-0.67125z" clip-rule="evenodd" fill="#fff" stroke-width="3.118"/></g></g></svg>
