<?xml version="1.0" encoding="UTF-8" standalone="no"?>
<!-- Created with Inkscape (http://www.inkscape.org/) -->

<svg
   xmlns:osb="http://www.openswatchbook.org/uri/2009/osb"
   xmlns:dc="http://purl.org/dc/elements/1.1/"
   xmlns:cc="http://creativecommons.org/ns#"
   xmlns:rdf="http://www.w3.org/1999/02/22-rdf-syntax-ns#"
   xmlns:svg="http://www.w3.org/2000/svg"
   xmlns="http://www.w3.org/2000/svg"
   xmlns:sodipodi="http://sodipodi.sourceforge.net/DTD/sodipodi-0.dtd"
   xmlns:inkscape="http://www.inkscape.org/namespaces/inkscape"
   width="39.821053mm"
   height="8.245122mm"
   viewBox="0 0 39.821053 8.245122"
   version="1.1"
   id="svg8"
   sodipodi:docname="signature.svg"
   inkscape:version="0.92.1 r15371">
  <defs
     id="defs2">
    <linearGradient
       id="linearGradient4592"
       osb:paint="solid"
       gradientTransform="matrix(0.03235415,0,0,0.06500824,-25.973288,148.58803)">
      <stop
         style="stop-color:#94ac78;stop-opacity:1;"
         offset="0"
         id="stop4590" />
    </linearGradient>
  </defs>
  <sodipodi:namedview
     id="base"
     pagecolor="#ffffff"
     bordercolor="#666666"
     borderopacity="1.0"
     inkscape:pageopacity="0.0"
     inkscape:pageshadow="2"
     inkscape:zoom="1.979899"
     inkscape:cx="92.050039"
     inkscape:cy="102.34225"
     inkscape:document-units="mm"
     inkscape:current-layer="layer1"
     showgrid="false"
     inkscape:snap-page="true"
     inkscape:snap-bbox="true"
     inkscape:bbox-nodes="true"
     fit-margin-top="0"
     fit-margin-left="0"
     fit-margin-right="0"
     fit-margin-bottom="0"
     inkscape:window-width="1920"
     inkscape:window-height="1018"
     inkscape:window-x="1912"
     inkscape:window-y="-8"
     inkscape:window-maximized="1" />
  <metadata
     id="metadata5">
    <rdf:RDF>
      <cc:Work
         rdf:about="">
        <dc:format>image/svg+xml</dc:format>
        <dc:type
           rdf:resource="http://purl.org/dc/dcmitype/StillImage" />
        <dc:title></dc:title>
      </cc:Work>
    </rdf:RDF>
  </metadata>
  <g
     inkscape:label="Layer 1"
     inkscape:groupmode="layer"
     id="layer1"
     transform="translate(-5.0501525e-7,-288.75487)">
    <g
       aria-label="Christina Holvey"
       style="font-style:normal;font-variant:normal;font-weight:normal;font-stretch:normal;font-size:6.33752632px;line-height:4.27781534px;font-family:'Black Jack';-inkscape-font-specification:'Black Jack, Normal';font-variant-ligatures:normal;font-variant-position:normal;font-variant-caps:normal;font-variant-numeric:normal;font-variant-alternates:normal;font-feature-settings:normal;text-indent:0;text-align:center;text-decoration:none;text-decoration-line:none;text-decoration-style:solid;text-decoration-color:#000000;letter-spacing:0px;word-spacing:0px;text-transform:none;writing-mode:lr-tb;direction:ltr;text-orientation:mixed;dominant-baseline:auto;baseline-shift:baseline;text-anchor:middle;white-space:normal;shape-padding:0;display:inline;opacity:1;vector-effect:none;fill:url(#linearGradient4592);fill-opacity:1;stroke:none;stroke-width:0.35326028px;stroke-linecap:butt;stroke-linejoin:miter;stroke-miterlimit:4;stroke-dasharray:none;stroke-dashoffset:0;stroke-opacity:1;enable-background:new"
       id="text4586">
      <path
         d="m 0.70980345,292.53203 c 0,-0.73515 0.51333965,-2.50332 1.43228095,-2.50332 0.3105388,0 0.481652,0.2535 0.481652,0.54503 0,0.17745 -0.031688,0.37391 -0.082388,0.54502 -0.031688,0.10774 -0.1394256,0.32322 -0.1394256,0.41828 0,0.0951 0.082388,0.11407 0.1584381,0.11407 0.0507,0 0.107738,-0.0127 0.1521007,-0.0444 0.1837882,-0.13309 0.2471635,-0.8112 0.2471635,-1.03935 0,-0.507 -0.3549015,-0.89359 -0.8682411,-0.89359 -1.35623064,0 -2.09138369498475,1.69845 -2.09138369498475,2.85822 0,1.04569 0.59572747498475,2.05336 1.74281969498475,2.05336 0.7858533,0 1.5780441,-0.50066 1.9646332,-1.17878 0.031688,-0.0507 0.082388,-0.14576 0.082388,-0.2028 0,-0.057 -0.044363,-0.10774 -0.1014004,-0.10774 -0.07605,0 -0.133088,0.0887 -0.1711132,0.14576 -0.063375,0.1014 -0.120413,0.2028 -0.1964633,0.29787 -0.3422264,0.43095 -0.8555661,0.68445 -1.4069308,0.68445 -1.0013292,0 -1.20413005,-0.86824 -1.20413005,-1.69212 z"
         style="font-style:normal;font-variant:normal;font-weight:normal;font-stretch:normal;font-size:6.33752632px;line-height:4.27781534px;font-family:'Black Jack';-inkscape-font-specification:'Black Jack, Normal';font-variant-ligatures:normal;font-variant-position:normal;font-variant-caps:normal;font-variant-numeric:normal;font-variant-alternates:normal;font-feature-settings:normal;text-indent:0;text-align:center;text-decoration-line:none;text-decoration-style:solid;text-decoration-color:#000000;letter-spacing:0px;word-spacing:0px;text-transform:none;writing-mode:lr-tb;direction:ltr;text-orientation:mixed;dominant-baseline:auto;text-anchor:middle;white-space:normal;shape-padding:0;vector-effect:none;fill:url(#linearGradient4592);fill-opacity:1;stroke:none;stroke-width:0.35326028px;stroke-linecap:butt;stroke-linejoin:miter;stroke-miterlimit:4;stroke-dasharray:none;stroke-dashoffset:0;stroke-opacity:1"
         id="path4499" />
      <path
         d="m 5.4088812,292.15178 c 0.063375,0 0.063375,0.11407 0.063375,0.1521 -0.044363,0.507 -0.1014004,0.9633 -0.1014004,1.41961 0,0.27885 0,0.86824 0.3358888,0.86824 0.5957275,0 1.2294802,-0.74783 1.4766437,-1.23582 0.012675,-0.0317 0.038025,-0.0634 0.038025,-0.1014 0,-0.0634 -0.019013,-0.12675 -0.095063,-0.12675 -0.069713,0 -0.1140754,0.0824 -0.1521006,0.13942 -0.2218134,0.32956 -0.6337526,0.9443 -1.0266793,0.9443 -0.1647756,0 -0.1711132,-0.16478 -0.1711132,-0.28519 l 0.120413,-1.59072 c 0,-0.22815 -0.07605,-0.57038 -0.361239,-0.57038 -0.5957274,0 -1.3562306,1.39426 -1.5907191,1.89492 0.02535,-0.17111 0.1394256,-0.93795 0.1901258,-1.03935 0.1014004,-0.19647 0.2154759,-0.38659 0.3168763,-0.58939 0.4182768,-0.83022 0.7414906,-1.73649 0.7414906,-2.68078 0,-0.20914 -0.063375,-0.59572 -0.3422264,-0.59572 -0.9379539,0 -1.2484927,4.14474 -1.3372181,4.8482 -0.02535,0.21548 -0.069713,0.43729 -0.069713,0.65277 0,0.13942 0.031688,0.38025 0.2154758,0.38025 0.1837883,0 0.2851887,-0.20914 0.3549015,-0.3549 l 0.00634,-0.019 c 0.1521007,-0.32322 1.1090672,-2.1104 1.3879183,-2.1104 z m -0.5260147,-3.0737 c 0.07605,0 0.07605,0.24083 0.07605,0.29786 0,0.78586 -0.481652,2.00266 -0.8619035,2.69345 0.02535,-0.43095 0.3929266,-2.99131 0.7858532,-2.99131 z"
         style="font-style:normal;font-variant:normal;font-weight:normal;font-stretch:normal;font-size:6.33752632px;line-height:4.27781534px;font-family:'Black Jack';-inkscape-font-specification:'Black Jack, Normal';font-variant-ligatures:normal;font-variant-position:normal;font-variant-caps:normal;font-variant-numeric:normal;font-variant-alternates:normal;font-feature-settings:normal;text-indent:0;text-align:center;text-decoration-line:none;text-decoration-style:solid;text-decoration-color:#000000;letter-spacing:0px;word-spacing:0px;text-transform:none;writing-mode:lr-tb;direction:ltr;text-orientation:mixed;dominant-baseline:auto;text-anchor:middle;white-space:normal;shape-padding:0;vector-effect:none;fill:url(#linearGradient4592);fill-opacity:1;stroke:none;stroke-width:0.35326028px;stroke-linecap:butt;stroke-linejoin:miter;stroke-miterlimit:4;stroke-dasharray:none;stroke-dashoffset:0;stroke-opacity:1"
         id="path4501" />
      <path
         d="m 7.8926963,293.02636 c 0,0.23449 -0.031688,0.46264 -0.031688,0.69713 0,0.29786 0.02535,0.88725 0.4436268,0.88725 0.4056017,0 1.0456919,-0.74783 1.2484927,-1.07738 0.02535,-0.038 0.0507,-0.0824 0.0507,-0.13309 0,-0.0634 -0.012675,-0.13309 -0.088725,-0.13309 -0.069713,0 -0.1267506,0.0824 -0.1647757,0.13943 -0.1647757,0.24716 -0.6844529,0.90627 -0.9759791,0.90627 -0.120413,0 -0.120413,-0.1521 -0.120413,-0.23449 0,-0.3042 0.057038,-0.59573 0.1267505,-0.89359 0.019013,-0.0824 0.031688,-0.16478 0.031688,-0.24717 0,-0.56404 -0.5577023,-0.58939 -0.7541657,-0.88725 0.012675,-0.1014 0.019013,-0.2028 0.019013,-0.3042 0,-0.12675 -0.031688,-0.49433 -0.2091383,-0.49433 -0.2535011,0 -0.3739141,0.51334 -0.3739141,0.7098 0,0.19013 0.0507,0.38026 0.1647757,0.53236 -0.0507,0.43095 -0.3042013,0.79852 -0.5450273,1.14709 -0.031688,0.0444 -0.057038,0.0887 -0.057038,0.13942 0,0.0507 0.031688,0.0824 0.082388,0.0824 0.069713,0 0.1267506,-0.0507 0.1711132,-0.0951 0.2788512,-0.28519 0.4753145,-0.76684 0.6084026,-1.13442 0.1837882,0.057 0.373914,0.18379 0.373914,0.39293 z"
         style="font-style:normal;font-variant:normal;font-weight:normal;font-stretch:normal;font-size:6.33752632px;line-height:4.27781534px;font-family:'Black Jack';-inkscape-font-specification:'Black Jack, Normal';font-variant-ligatures:normal;font-variant-position:normal;font-variant-caps:normal;font-variant-numeric:normal;font-variant-alternates:normal;font-feature-settings:normal;text-indent:0;text-align:center;text-decoration-line:none;text-decoration-style:solid;text-decoration-color:#000000;letter-spacing:0px;word-spacing:0px;text-transform:none;writing-mode:lr-tb;direction:ltr;text-orientation:mixed;dominant-baseline:auto;text-anchor:middle;white-space:normal;shape-padding:0;vector-effect:none;fill:url(#linearGradient4592);fill-opacity:1;stroke:none;stroke-width:0.35326028px;stroke-linecap:butt;stroke-linejoin:miter;stroke-miterlimit:4;stroke-dasharray:none;stroke-dashoffset:0;stroke-opacity:1"
         id="path4503" />
      <path
         d="m 9.9246654,293.62209 c 0,-0.19013 0.019013,-0.38026 0.057038,-0.56404 0.044363,-0.19013 0.1901258,-0.50067 0.1901258,-0.67178 0,-0.1014 -0.0507,-0.13943 -0.145763,-0.13943 -0.2661763,0 -0.3802517,0.17745 -0.456302,0.4056 -0.069713,0.22182 -0.1330881,0.54503 -0.1330881,0.77952 0,0.36758 0.07605,1.08372 0.5767151,1.08372 0.449964,0 0.988654,-0.67178 1.22948,-1.01401 0.0507,-0.0697 0.171113,-0.24082 0.171113,-0.32321 0,-0.0634 0,-0.13943 -0.08239,-0.13943 -0.06971,0 -0.120413,0.076 -0.158438,0.13309 -0.190126,0.29786 -0.684453,1.02668 -1.026679,1.02668 -0.215476,0 -0.2218136,-0.43095 -0.2218136,-0.57671 z m 0.2535006,-2.34489 c -0.171113,0 -0.2978633,0.17745 -0.2978633,0.33589 0,0.12675 0.082388,0.24083 0.2154763,0.24083 0.171113,0 0.304201,-0.17112 0.304201,-0.33589 0,-0.12675 -0.08873,-0.24083 -0.221814,-0.24083 z"
         style="font-style:normal;font-variant:normal;font-weight:normal;font-stretch:normal;font-size:6.33752632px;line-height:4.27781534px;font-family:'Black Jack';-inkscape-font-specification:'Black Jack, Normal';font-variant-ligatures:normal;font-variant-position:normal;font-variant-caps:normal;font-variant-numeric:normal;font-variant-alternates:normal;font-feature-settings:normal;text-indent:0;text-align:center;text-decoration-line:none;text-decoration-style:solid;text-decoration-color:#000000;letter-spacing:0px;word-spacing:0px;text-transform:none;writing-mode:lr-tb;direction:ltr;text-orientation:mixed;dominant-baseline:auto;text-anchor:middle;white-space:normal;shape-padding:0;vector-effect:none;fill:url(#linearGradient4592);fill-opacity:1;stroke:none;stroke-width:0.35326028px;stroke-linecap:butt;stroke-linejoin:miter;stroke-miterlimit:4;stroke-dasharray:none;stroke-dashoffset:0;stroke-opacity:1"
         id="path4505" />
      <path
         d="m 11.988619,292.29754 c 0.07605,-0.19646 0.145763,-0.41827 0.145763,-0.62741 0,-0.12675 -0.04436,-0.34223 -0.2028,-0.34223 -0.304202,0 -0.468977,0.49433 -0.468977,0.74149 0,0.11408 0.01901,0.22815 0.05704,0.33589 -0.139425,0.43729 -0.361239,0.85557 -0.646427,1.21047 -0.03803,0.0507 -0.07605,0.1014 -0.07605,0.16477 0,0.0507 0.03802,0.0887 0.08873,0.0887 0.06338,0 0.12675,-0.0634 0.164775,-0.1014 0.253501,-0.2535 0.500665,-0.77318 0.621078,-1.11541 0.209138,0.31054 0.443627,0.84923 0.443627,1.22948 0,0.32322 -0.177451,0.55137 -0.51334,0.55137 -0.164776,0 -0.316876,-0.019 -0.449964,-0.12041 0.01267,0.0127 -0.06337,-0.0444 -0.114076,-0.0444 -0.05704,0 -0.1014,0.0317 -0.1014,0.0951 0,0.057 0.03169,0.1014 0.06971,0.13942 0.183788,0.17745 0.507002,0.20914 0.747828,0.20914 0.918941,0 1.463968,-0.43729 1.939283,-1.18512 0.01901,-0.038 0.05704,-0.0887 0.05704,-0.13309 0,-0.0634 -0.01901,-0.12675 -0.09506,-0.12675 -0.06971,0 -0.126751,0.0824 -0.164776,0.13943 -0.164776,0.24716 -0.760503,0.89993 -1.052029,0.89993 0.1014,-0.14576 0.145763,-0.31688 0.145763,-0.48799 0,-0.54503 -0.392927,-1.03302 -0.595728,-1.52101 z"
         style="font-style:normal;font-variant:normal;font-weight:normal;font-stretch:normal;font-size:6.33752632px;line-height:4.27781534px;font-family:'Black Jack';-inkscape-font-specification:'Black Jack, Normal';font-variant-ligatures:normal;font-variant-position:normal;font-variant-caps:normal;font-variant-numeric:normal;font-variant-alternates:normal;font-feature-settings:normal;text-indent:0;text-align:center;text-decoration-line:none;text-decoration-style:solid;text-decoration-color:#000000;letter-spacing:0px;word-spacing:0px;text-transform:none;writing-mode:lr-tb;direction:ltr;text-orientation:mixed;dominant-baseline:auto;text-anchor:middle;white-space:normal;shape-padding:0;vector-effect:none;fill:url(#linearGradient4592);fill-opacity:1;stroke:none;stroke-width:0.35326028px;stroke-linecap:butt;stroke-linejoin:miter;stroke-miterlimit:4;stroke-dasharray:none;stroke-dashoffset:0;stroke-opacity:1"
         id="path4507" />
      <path
         d="m 14.895465,291.37226 c 0.09506,-0.019 0.456302,-0.10773 0.519677,-0.14576 0.0507,-0.0317 0.08239,-0.057 0.08239,-0.12041 0,-0.0634 -0.03169,-0.0824 -0.08873,-0.0824 -0.145763,0 -0.285188,0.0317 -0.430951,0.0507 0.09506,-0.31688 0.139425,-0.66544 0.139425,-0.99499 0,-0.19013 -0.01901,-0.57038 -0.285188,-0.57038 -0.595728,0 -0.963304,1.26117 -1.10273,1.71747 -0.133088,0.0127 -0.323214,0.038 -0.323214,0.20914 0,0.1014 0.0507,0.1521 0.152101,0.1521 0.04436,0 0.08873,-0.006 0.133088,-0.019 -0.08239,0.4056 -0.107738,0.83021 -0.107738,1.24215 0,0.47532 0.12675,1.81887 0.785853,1.81887 0.51334,0 1.07738,-0.74783 1.318206,-1.15343 0.0507,-0.0824 0.1014,-0.16477 0.1014,-0.25984 0,-0.0507 -0.03803,-0.0951 -0.08873,-0.0951 -0.06971,0 -0.133088,0.0887 -0.164776,0.14576 -0.190126,0.30421 -0.652765,0.97598 -1.045692,0.97598 -0.342226,0 -0.399264,-0.95063 -0.399264,-1.20413 0,-0.0317 0.0063,-0.10773 0.01268,-0.13942 0,0 0.190126,-0.2535 0.266176,-0.38659 0.209138,-0.34223 0.424614,-0.75417 0.526015,-1.14076 z m -0.07605,-1.54635 c 0.06338,0 0.06338,0.1521 0.06338,0.19012 0,0.33589 -0.07605,0.76684 -0.177451,1.09006 -0.171113,0.038 -0.348564,0.0444 -0.519677,0.0697 0.03169,-0.2535 0.342226,-1.34989 0.633752,-1.34989 z m -0.671777,1.69212 c 0.145763,-0.0444 0.297863,-0.0444 0.449964,-0.0761 -0.08239,0.29786 -0.367576,0.84923 -0.557702,1.09005 0.02535,-0.33589 0.03169,-0.68445 0.107738,-1.014 z"
         style="font-style:normal;font-variant:normal;font-weight:normal;font-stretch:normal;font-size:6.33752632px;line-height:4.27781534px;font-family:'Black Jack';-inkscape-font-specification:'Black Jack, Normal';font-variant-ligatures:normal;font-variant-position:normal;font-variant-caps:normal;font-variant-numeric:normal;font-variant-alternates:normal;font-feature-settings:normal;text-indent:0;text-align:center;text-decoration-line:none;text-decoration-style:solid;text-decoration-color:#000000;letter-spacing:0px;word-spacing:0px;text-transform:none;writing-mode:lr-tb;direction:ltr;text-orientation:mixed;dominant-baseline:auto;text-anchor:middle;white-space:normal;shape-padding:0;vector-effect:none;fill:url(#linearGradient4592);fill-opacity:1;stroke:none;stroke-width:0.35326028px;stroke-linecap:butt;stroke-linejoin:miter;stroke-miterlimit:4;stroke-dasharray:none;stroke-dashoffset:0;stroke-opacity:1"
         id="path4509" />
      <path
         d="m 16.014632,293.62209 c 0,-0.19013 0.01901,-0.38026 0.05704,-0.56404 0.04436,-0.19013 0.190126,-0.50067 0.190126,-0.67178 0,-0.1014 -0.0507,-0.13943 -0.145763,-0.13943 -0.266176,0 -0.380252,0.17745 -0.456302,0.4056 -0.06971,0.22182 -0.133088,0.54503 -0.133088,0.77952 0,0.36758 0.07605,1.08372 0.576715,1.08372 0.449964,0 0.988654,-0.67178 1.22948,-1.01401 0.0507,-0.0697 0.171113,-0.24082 0.171113,-0.32321 0,-0.0634 0,-0.13943 -0.08239,-0.13943 -0.06971,0 -0.120413,0.076 -0.158438,0.13309 -0.190126,0.29786 -0.684453,1.02668 -1.026679,1.02668 -0.215476,0 -0.221814,-0.43095 -0.221814,-0.57671 z m 0.253501,-2.34489 c -0.171113,0 -0.297863,0.17745 -0.297863,0.33589 0,0.12675 0.08239,0.24083 0.215475,0.24083 0.171114,0 0.304202,-0.17112 0.304202,-0.33589 0,-0.12675 -0.08873,-0.24083 -0.221814,-0.24083 z"
         style="font-style:normal;font-variant:normal;font-weight:normal;font-stretch:normal;font-size:6.33752632px;line-height:4.27781534px;font-family:'Black Jack';-inkscape-font-specification:'Black Jack, Normal';font-variant-ligatures:normal;font-variant-position:normal;font-variant-caps:normal;font-variant-numeric:normal;font-variant-alternates:normal;font-feature-settings:normal;text-indent:0;text-align:center;text-decoration-line:none;text-decoration-style:solid;text-decoration-color:#000000;letter-spacing:0px;word-spacing:0px;text-transform:none;writing-mode:lr-tb;direction:ltr;text-orientation:mixed;dominant-baseline:auto;text-anchor:middle;white-space:normal;shape-padding:0;vector-effect:none;fill:url(#linearGradient4592);fill-opacity:1;stroke:none;stroke-width:0.35326028px;stroke-linecap:butt;stroke-linejoin:miter;stroke-miterlimit:4;stroke-dasharray:none;stroke-dashoffset:0;stroke-opacity:1"
         id="path4511" />
      <path
         d="m 17.204008,294.6044 c 0.120413,0 0.209139,-0.1014 0.259839,-0.2028 0.145763,-0.31687 0.291526,-0.62741 0.475314,-0.92528 0.152101,-0.24716 0.342227,-0.53869 0.551365,-0.74149 0.03169,-0.0317 0.101401,-0.1014 0.145763,-0.1014 0.0507,0 0.05704,0.0951 0.05704,0.12675 l -0.02535,0.72248 c 0,0.0317 0,0.0634 0,0.0951 0,0.31688 0.06971,0.74149 0.462639,0.74149 0.475315,0 1.033017,-0.68445 1.216805,-1.07738 0.01267,-0.0317 0.04436,-0.0951 0.04436,-0.12675 0,-0.057 -0.04436,-0.12675 -0.107738,-0.12675 -0.06971,0 -0.120413,0.0887 -0.1521,0.14577 -0.145764,0.27885 -0.53869,0.87457 -0.874579,0.87457 -0.196463,0 -0.202801,-0.23448 -0.202801,-0.38025 v -0.88725 c 0,-0.18379 -0.0063,-0.61474 -0.253501,-0.61474 -0.329551,0 -1.10273,1.12808 -1.10273,1.12808 0.03169,-0.24716 0.08239,-0.49433 0.171114,-0.72882 0.07605,-0.2028 0.164775,-0.46264 0.164775,-0.67811 0,-0.13309 -0.04436,-0.21548 -0.190125,-0.21548 -0.158439,0 -0.335889,0.1521 -0.367577,0.3042 -0.04436,0.19647 -0.07605,0.39927 -0.114075,0.59573 -0.126751,0.6084 -0.291527,1.29286 -0.291527,1.91393 0,0.0824 0.04436,0.15844 0.133088,0.15844 z"
         style="font-style:normal;font-variant:normal;font-weight:normal;font-stretch:normal;font-size:6.33752632px;line-height:4.27781534px;font-family:'Black Jack';-inkscape-font-specification:'Black Jack, Normal';font-variant-ligatures:normal;font-variant-position:normal;font-variant-caps:normal;font-variant-numeric:normal;font-variant-alternates:normal;font-feature-settings:normal;text-indent:0;text-align:center;text-decoration-line:none;text-decoration-style:solid;text-decoration-color:#000000;letter-spacing:0px;word-spacing:0px;text-transform:none;writing-mode:lr-tb;direction:ltr;text-orientation:mixed;dominant-baseline:auto;text-anchor:middle;white-space:normal;shape-padding:0;vector-effect:none;fill:url(#linearGradient4592);fill-opacity:1;stroke:none;stroke-width:0.35326028px;stroke-linecap:butt;stroke-linejoin:miter;stroke-miterlimit:4;stroke-dasharray:none;stroke-dashoffset:0;stroke-opacity:1"
         id="path4513" />
      <path
         d="m 22.940559,293.34957 c 0,-0.0697 -0.02535,-0.12041 -0.1014,-0.12041 -0.08873,0 -0.177451,0.15844 -0.177451,0.15844 -0.171113,0.22815 -0.646428,0.85556 -0.944291,0.85556 -0.196464,0 -0.202801,-0.48799 -0.202801,-0.62107 0,-0.22182 0.02535,-0.48799 0.09506,-0.70347 0.03169,-0.0951 0.114075,-0.27885 0.114075,-0.36758 0,-0.0824 -0.08239,-0.1014 -0.145763,-0.1014 -0.120413,0 -0.171113,0.0951 -0.215476,0.19013 -0.120413,0.25984 -0.652765,1.38158 -0.937954,1.38158 -0.07605,0 -0.08239,-0.1014 -0.08239,-0.1521 0,-0.47532 0.209139,-0.90627 0.53869,-1.24216 0.183788,-0.19012 0.392927,-0.33588 0.621078,-0.46897 0.03169,-0.019 0.06338,-0.038 0.06338,-0.0761 0,-0.0887 -0.120413,-0.19647 -0.209138,-0.19647 -0.741491,0 -1.432281,1.15977 -1.432281,1.82521 0,0.24083 0.06971,0.6591 0.380251,0.6591 0.335889,0 0.722478,-0.57671 0.887254,-0.83655 0,0.29786 0.0507,0.98232 0.468977,0.98232 0.443627,0 0.906266,-0.57672 1.140755,-0.90627 0.04436,-0.0634 0.139425,-0.18379 0.139425,-0.25984 z"
         style="font-style:normal;font-variant:normal;font-weight:normal;font-stretch:normal;font-size:6.33752632px;line-height:4.27781534px;font-family:'Black Jack';-inkscape-font-specification:'Black Jack, Normal';font-variant-ligatures:normal;font-variant-position:normal;font-variant-caps:normal;font-variant-numeric:normal;font-variant-alternates:normal;font-feature-settings:normal;text-indent:0;text-align:center;text-decoration-line:none;text-decoration-style:solid;text-decoration-color:#000000;letter-spacing:0px;word-spacing:0px;text-transform:none;writing-mode:lr-tb;direction:ltr;text-orientation:mixed;dominant-baseline:auto;text-anchor:middle;white-space:normal;shape-padding:0;vector-effect:none;fill:url(#linearGradient4592);fill-opacity:1;stroke:none;stroke-width:0.35326028px;stroke-linecap:butt;stroke-linejoin:miter;stroke-miterlimit:4;stroke-dasharray:none;stroke-dashoffset:0;stroke-opacity:1"
         id="path4515" />
      <path
         d="m 25.417739,293.0327 c -0.03169,0.25983 -0.48799,1.19145 -0.671778,1.37524 -0.05704,0.057 -0.133088,0.10774 -0.215476,0.10774 -0.06971,0 -0.133088,-0.057 -0.133088,-0.12675 0,-0.48166 0.61474,-1.13442 1.020342,-1.35623 z m 3.523664,-0.63376 c 0.09506,0 0.164776,-0.0697 0.164776,-0.16477 0,-0.22182 -0.342227,-0.22815 -0.595728,-0.22815 -0.209138,0 -0.411939,0 -0.621077,0.0127 0.234488,-0.69713 0.621077,-1.50833 1.039354,-2.11039 0.08873,-0.12676 0.291526,-0.28519 0.291526,-0.44997 0,-0.0444 -0.03803,-0.0697 -0.08239,-0.0697 -0.164776,0 -0.494328,0.48165 -0.494328,0.48165 -0.418276,0.67178 -0.861903,1.42594 -1.159767,2.19912 -0.487989,0.0507 -0.963304,0.19646 -1.432281,0.34857 0.145763,-0.55771 0.259839,-1.14076 0.259839,-1.71747 0,-0.44363 -0.133088,-1.03936 -0.684453,-1.03936 -0.120413,0 -0.627415,0.10774 -0.627415,0.2535 0,0.057 0.08239,0.11408 0.133088,0.11408 0.07605,0 0.133088,-0.0444 0.209138,-0.0444 0.335889,0 0.399264,0.5577 0.399264,0.80486 0,0.19013 -0.221813,1.79986 -0.272513,1.83788 -0.449965,0.32956 -1.419606,0.89993 -1.419606,1.74916 0,0.34223 0.183788,0.58305 0.545027,0.58305 0.855566,0 1.381581,-2.15476 1.381581,-2.15476 0.449964,-0.2028 0.925279,-0.34856 1.406931,-0.44362 -0.139426,0.4056 -0.234489,0.84923 -0.234489,1.28018 0,0.29152 0.06971,0.78585 0.348564,0.78585 0.05704,0 0.139426,-0.057 0.139426,-0.12041 0,-0.0507 -0.145763,-0.2535 -0.145763,-0.50067 0,-0.4563 0.120413,-1.09639 0.316876,-1.50833 0.158438,-0.0127 0.316876,-0.0317 0.475314,-0.0317 0.234489,0 0.443627,0.13309 0.659103,0.13309 z"
         style="font-style:normal;font-variant:normal;font-weight:normal;font-stretch:normal;font-size:6.33752632px;line-height:4.27781534px;font-family:'Black Jack';-inkscape-font-specification:'Black Jack, Normal';font-variant-ligatures:normal;font-variant-position:normal;font-variant-caps:normal;font-variant-numeric:normal;font-variant-alternates:normal;font-feature-settings:normal;text-indent:0;text-align:center;text-decoration-line:none;text-decoration-style:solid;text-decoration-color:#000000;letter-spacing:0px;word-spacing:0px;text-transform:none;writing-mode:lr-tb;direction:ltr;text-orientation:mixed;dominant-baseline:auto;text-anchor:middle;white-space:normal;shape-padding:0;vector-effect:none;fill:url(#linearGradient4592);fill-opacity:1;stroke:none;stroke-width:0.35326028px;stroke-linecap:butt;stroke-linejoin:miter;stroke-miterlimit:4;stroke-dasharray:none;stroke-dashoffset:0;stroke-opacity:1"
         id="path4517" />
      <path
         d="m 28.845944,293.65377 c 0,0.38025 0.1521,0.84289 0.608402,0.84289 0.177451,0 0.348564,-0.0697 0.494327,-0.16477 0.481652,-0.32322 0.678116,-0.93162 0.678116,-1.48932 0,-0.38025 -0.126751,-0.86824 -0.595728,-0.86824 -0.754165,0 -1.185117,1.04569 -1.185117,1.67944 z m 1.185117,-1.26116 c 0.272514,0 0.329552,0.36123 0.329552,0.57037 0,0.38659 -0.133088,0.85557 -0.449965,1.10273 -0.08239,0.0634 -0.183788,0.12042 -0.291526,0.12042 -0.259839,0 -0.316876,-0.31688 -0.316876,-0.51968 0,-0.38025 0.253501,-1.27384 0.728815,-1.27384 z"
         style="font-style:normal;font-variant:normal;font-weight:normal;font-stretch:normal;font-size:6.33752632px;line-height:4.27781534px;font-family:'Black Jack';-inkscape-font-specification:'Black Jack, Normal';font-variant-ligatures:normal;font-variant-position:normal;font-variant-caps:normal;font-variant-numeric:normal;font-variant-alternates:normal;font-feature-settings:normal;text-indent:0;text-align:center;text-decoration-line:none;text-decoration-style:solid;text-decoration-color:#000000;letter-spacing:0px;word-spacing:0px;text-transform:none;writing-mode:lr-tb;direction:ltr;text-orientation:mixed;dominant-baseline:auto;text-anchor:middle;white-space:normal;shape-padding:0;vector-effect:none;fill:url(#linearGradient4592);fill-opacity:1;stroke:none;stroke-width:0.35326028px;stroke-linecap:butt;stroke-linejoin:miter;stroke-miterlimit:4;stroke-dasharray:none;stroke-dashoffset:0;stroke-opacity:1"
         id="path4519" />
      <path
         d="m 31.882807,294.62341 c 0.526015,0 1.07738,-0.74782 1.324543,-1.15976 l 0.0063,-0.006 c 0.04436,-0.0697 0.08873,-0.14576 0.08873,-0.22181 0,-0.057 -0.01901,-0.11408 -0.08873,-0.11408 -0.06338,0 -0.1014,0.038 -0.133088,0.0887 l -0.164776,0.25983 c -0.158438,0.24717 -0.58939,0.77318 -0.899928,0.77318 -0.348564,0 -0.399265,-0.75416 -0.399265,-1.00133 0,-0.0761 0,-0.20913 0.02535,-0.27885 0.01901,-0.057 0.07605,-0.13309 0.107738,-0.18379 0.101401,-0.16477 0.215476,-0.31687 0.304202,-0.48798 0.380251,-0.6908 0.79219,-1.81887 0.79219,-2.61107 0,-0.24082 -0.08239,-0.57037 -0.380251,-0.57037 -0.380252,0 -0.741491,0.62741 -0.874579,0.93161 -0.348564,0.81121 -0.481652,1.69846 -0.481652,2.57938 0,0.49432 0.06971,2.00265 0.773178,2.00265 z m 0.602065,-5.20944 c 0.09506,0 0.09506,0.17745 0.09506,0.23449 0,0.80486 -0.564039,2.04068 -0.975979,2.73147 -0.0063,-0.0634 -0.0063,-0.12041 -0.0063,-0.18379 0,-0.6084 0.177451,-1.30553 0.361239,-1.91393 0.06971,-0.23449 0.259838,-0.86824 0.526014,-0.86824 z"
         style="font-style:normal;font-variant:normal;font-weight:normal;font-stretch:normal;font-size:6.33752632px;line-height:4.27781534px;font-family:'Black Jack';-inkscape-font-specification:'Black Jack, Normal';font-variant-ligatures:normal;font-variant-position:normal;font-variant-caps:normal;font-variant-numeric:normal;font-variant-alternates:normal;font-feature-settings:normal;text-indent:0;text-align:center;text-decoration-line:none;text-decoration-style:solid;text-decoration-color:#000000;letter-spacing:0px;word-spacing:0px;text-transform:none;writing-mode:lr-tb;direction:ltr;text-orientation:mixed;dominant-baseline:auto;text-anchor:middle;white-space:normal;shape-padding:0;vector-effect:none;fill:url(#linearGradient4592);fill-opacity:1;stroke:none;stroke-width:0.35326028px;stroke-linecap:butt;stroke-linejoin:miter;stroke-miterlimit:4;stroke-dasharray:none;stroke-dashoffset:0;stroke-opacity:1"
         id="path4521" />
      <path
         d="m 32.908398,292.34191 c 0,0.0507 0.08873,0.13308 0.08873,0.13308 0.278851,0.36758 0.602065,1.33722 0.71614,1.79352 0,0 0.02535,0.23449 0.190126,0.23449 0.152101,0 0.190126,-0.21547 0.190126,-0.21547 0.06338,-0.24717 0.975979,-1.78719 1.172442,-2.04703 0.01901,-0.0254 0.04436,-0.0507 0.04436,-0.0887 0,-0.0824 -0.09506,-0.14576 -0.171113,-0.14576 -0.07605,0 -0.126751,0.0824 -0.164776,0.13308 -0.354901,0.50067 -0.627415,1.05837 -0.925279,1.59072 -0.107738,-0.46897 -0.373914,-1.17244 -0.703465,-1.52734 -0.0507,-0.057 -0.107738,-0.10774 -0.190126,-0.10774 -0.107738,0 -0.247163,0.13943 -0.247163,0.24717 z"
         style="font-style:normal;font-variant:normal;font-weight:normal;font-stretch:normal;font-size:6.33752632px;line-height:4.27781534px;font-family:'Black Jack';-inkscape-font-specification:'Black Jack, Normal';font-variant-ligatures:normal;font-variant-position:normal;font-variant-caps:normal;font-variant-numeric:normal;font-variant-alternates:normal;font-feature-settings:normal;text-indent:0;text-align:center;text-decoration-line:none;text-decoration-style:solid;text-decoration-color:#000000;letter-spacing:0px;word-spacing:0px;text-transform:none;writing-mode:lr-tb;direction:ltr;text-orientation:mixed;dominant-baseline:auto;text-anchor:middle;white-space:normal;shape-padding:0;vector-effect:none;fill:url(#linearGradient4592);fill-opacity:1;stroke:none;stroke-width:0.35326028px;stroke-linecap:butt;stroke-linejoin:miter;stroke-miterlimit:4;stroke-dasharray:none;stroke-dashoffset:0;stroke-opacity:1"
         id="path4523" />
      <path
         d="m 36.194009,294.45864 c 0.69079,0 1.299193,-0.507 1.628744,-1.08372 0.03803,-0.0697 0.05704,-0.10774 0.05704,-0.19012 0,-0.0444 -0.0507,-0.0697 -0.08872,-0.0697 -0.08873,0 -0.152101,0.1014 -0.190126,0.16478 -0.253501,0.42461 -0.678115,0.88092 -1.210468,0.88092 -0.297863,0 -0.411939,-0.17746 -0.411939,-0.46264 0,-0.0887 0.01268,-0.17745 0.03169,-0.26618 0.386589,-0.13943 0.982316,-0.8112 0.982316,-1.23582 0,-0.22181 -0.12675,-0.38025 -0.354901,-0.38025 -0.684453,0 -1.147092,1.21047 -1.147092,1.78085 0,0.44996 0.202801,0.8619 0.703465,0.8619 z m 0.411939,-2.34489 c 0.08239,0 0.107738,0.0761 0.107738,0.14577 0,0.33589 -0.411939,0.76684 -0.684453,0.93161 0.03803,-0.22181 0.323214,-1.07738 0.576715,-1.07738 z"
         style="font-style:normal;font-variant:normal;font-weight:normal;font-stretch:normal;font-size:6.33752632px;line-height:4.27781534px;font-family:'Black Jack';-inkscape-font-specification:'Black Jack, Normal';font-variant-ligatures:normal;font-variant-position:normal;font-variant-caps:normal;font-variant-numeric:normal;font-variant-alternates:normal;font-feature-settings:normal;text-indent:0;text-align:center;text-decoration-line:none;text-decoration-style:solid;text-decoration-color:#000000;letter-spacing:0px;word-spacing:0px;text-transform:none;writing-mode:lr-tb;direction:ltr;text-orientation:mixed;dominant-baseline:auto;text-anchor:middle;white-space:normal;shape-padding:0;vector-effect:none;fill:url(#linearGradient4592);fill-opacity:1;stroke:none;stroke-width:0.35326028px;stroke-linecap:butt;stroke-linejoin:miter;stroke-miterlimit:4;stroke-dasharray:none;stroke-dashoffset:0;stroke-opacity:1"
         id="path4525" />
      <path
         d="m 38.204984,296.99999 c 0.405602,0 0.747828,-0.32322 0.956966,-0.64643 0.621078,-0.9633 0.659103,-2.27517 0.659103,-3.40959 0,-0.1521 0,-0.63375 -0.1014,-0.70347 -0.03803,-0.0254 -0.08239,-0.0444 -0.126751,-0.0444 -0.1014,0 -0.171113,0.10774 -0.228151,0.17745 -0.304201,0.38659 -0.583052,0.79853 -0.925279,1.1471 -0.07605,0.0761 -0.342226,0.34222 -0.443627,0.34222 -0.06338,0 -0.06338,-0.0951 -0.06338,-0.13309 0,-0.22815 0.177451,-0.77317 0.266176,-0.99499 0.03803,-0.1014 0.133088,-0.27251 0.133088,-0.38025 0,-0.14576 -0.133088,-0.25984 -0.272513,-0.25984 -0.120413,0 -0.190126,0.0761 -0.240826,0.17745 -0.03803,0.076 -0.05704,0.15844 -0.08239,0.24083 -0.114076,0.36124 -0.221814,0.7605 -0.221814,1.14075 0,0.22815 0.05704,0.50701 0.342227,0.50701 0.418277,0 1.25483,-0.95697 1.463968,-1.30554 0.01268,0.32956 0.01901,0.65277 0.01901,0.98232 0,0.12041 0,0.24083 -0.0063,0.36124 -0.652766,0.43095 -1.660432,1.26751 -1.660432,2.11673 0,0.33589 0.145763,0.68446 0.532352,0.68446 z m 1.096392,-2.52868 c -0.05704,0.55137 -0.259839,1.43862 -0.58939,1.88225 -0.114076,0.14576 -0.310539,0.38025 -0.51334,0.38025 -0.202801,0 -0.247163,-0.24716 -0.247163,-0.4056 0,-0.74783 0.811203,-1.42594 1.349893,-1.8569 z"
         style="font-style:normal;font-variant:normal;font-weight:normal;font-stretch:normal;font-size:6.33752632px;line-height:4.27781534px;font-family:'Black Jack';-inkscape-font-specification:'Black Jack, Normal';font-variant-ligatures:normal;font-variant-position:normal;font-variant-caps:normal;font-variant-numeric:normal;font-variant-alternates:normal;font-feature-settings:normal;text-indent:0;text-align:center;text-decoration-line:none;text-decoration-style:solid;text-decoration-color:#000000;letter-spacing:0px;word-spacing:0px;text-transform:none;writing-mode:lr-tb;direction:ltr;text-orientation:mixed;dominant-baseline:auto;text-anchor:middle;white-space:normal;shape-padding:0;vector-effect:none;fill:url(#linearGradient4592);fill-opacity:1;stroke:none;stroke-width:0.35326028px;stroke-linecap:butt;stroke-linejoin:miter;stroke-miterlimit:4;stroke-dasharray:none;stroke-dashoffset:0;stroke-opacity:1"
         id="path4527" />
    </g>
  </g>
</svg>
